<mxfile host="app.diagrams.net" modified="2020-08-27T06:55:30.445Z" agent="5.0 (Macintosh; Intel Mac OS X 10_15_6) AppleWebKit/537.36 (KHTML, like Gecko) Chrome/65.0.3325.181 Safari/537.36 QQBrowser/4.4.105.400" etag="s11ehjhY3WaFO3_LbgcV" version="13.6.5" type="github">
  <diagram name="Page-1" id="2a216829-ef6e-dabb-86c1-c78162f3ba2b">
    <mxGraphModel dx="1026" dy="717" grid="1" gridSize="10" guides="1" tooltips="1" connect="1" arrows="1" fold="1" page="1" pageScale="1" pageWidth="850" pageHeight="1100" background="#ffffff" math="0" shadow="0">
      <root>
        <mxCell id="0" />
        <mxCell id="1" parent="0" />
        <mxCell id="7a84cebc1def654-1" value="" style="shape=mxgraph.bpmn.shape;html=1;verticalLabelPosition=bottom;labelBackgroundColor=#ffffff;verticalAlign=top;perimeter=ellipsePerimeter;outline=standard;symbol=general;" parent="1" vertex="1">
          <mxGeometry x="2940" y="340" width="50" height="50" as="geometry" />
        </mxCell>
        <mxCell id="7a84cebc1def654-2" value="Task" style="shape=ext;rounded=1;html=1;whiteSpace=wrap;" parent="1" vertex="1">
          <mxGeometry x="3040" y="325" width="120" height="80" as="geometry" />
        </mxCell>
        <mxCell id="7a84cebc1def654-3" value="Task" style="shape=ext;rounded=1;html=1;whiteSpace=wrap;" parent="1" vertex="1">
          <mxGeometry x="3210" y="325" width="120" height="80" as="geometry" />
        </mxCell>
        <mxCell id="7a84cebc1def654-4" value="" style="shape=message;whiteSpace=wrap;html=1;" parent="1" vertex="1">
          <mxGeometry x="3080" y="250" width="40" height="30" as="geometry" />
        </mxCell>
        <mxCell id="7a84cebc1def654-5" value="" style="shape=message;whiteSpace=wrap;html=1;" parent="1" vertex="1">
          <mxGeometry x="3250" y="250" width="40" height="30" as="geometry" />
        </mxCell>
        <mxCell id="7a84cebc1def654-6" value="" style="shape=hexagon;whiteSpace=wrap;html=1;perimeter=hexagonPerimeter;" parent="1" vertex="1">
          <mxGeometry x="3240" y="450" width="60" height="50" as="geometry" />
        </mxCell>
        <mxCell id="7a84cebc1def654-7" value="" style="html=1;shape=plus;" parent="7a84cebc1def654-6" vertex="1">
          <mxGeometry x="0.5" y="1" width="14" height="14" relative="1" as="geometry">
            <mxPoint x="-7" y="-14" as="offset" />
          </mxGeometry>
        </mxCell>
        <mxCell id="7a84cebc1def654-8" value="Task" style="shape=ext;rounded=1;html=1;whiteSpace=wrap;" parent="1" vertex="1">
          <mxGeometry x="3210" y="550" width="120" height="80" as="geometry" />
        </mxCell>
        <mxCell id="7a84cebc1def654-9" value="" style="shape=mxgraph.bpmn.shape;html=1;verticalLabelPosition=bottom;labelBackgroundColor=#ffffff;verticalAlign=top;perimeter=rhombusPerimeter;background=gateway;outline=none;symbol=parallelGw;" parent="1" vertex="1">
          <mxGeometry x="3375" y="565" width="50" height="50" as="geometry" />
        </mxCell>
        <mxCell id="7a84cebc1def654-12" value="Sub-Process" style="html=1;whiteSpace=wrap;rounded=1;" parent="1" vertex="1">
          <mxGeometry x="3650" y="325" width="120" height="80" as="geometry" />
        </mxCell>
        <mxCell id="7a84cebc1def654-13" value="" style="html=1;shape=plus;" parent="7a84cebc1def654-12" vertex="1">
          <mxGeometry x="0.5" y="1" width="14" height="14" relative="1" as="geometry">
            <mxPoint x="-7" y="-14" as="offset" />
          </mxGeometry>
        </mxCell>
        <mxCell id="7a84cebc1def654-14" value="Receive" style="html=1;whiteSpace=wrap;rounded=1;" parent="1" vertex="1">
          <mxGeometry x="3460" y="325" width="120" height="80" as="geometry" />
        </mxCell>
        <mxCell id="7a84cebc1def654-15" value="" style="html=1;shape=message;" parent="7a84cebc1def654-14" vertex="1">
          <mxGeometry width="20" height="14" relative="1" as="geometry">
            <mxPoint x="7" y="7" as="offset" />
          </mxGeometry>
        </mxCell>
        <mxCell id="7a84cebc1def654-16" value="Process" style="html=1;whiteSpace=wrap;rounded=1;" parent="1" vertex="1">
          <mxGeometry x="3585" y="550" width="120" height="80" as="geometry" />
        </mxCell>
        <mxCell id="7a84cebc1def654-17" value="" style="shape=mxgraph.bpmn.timer_start;perimeter=ellipsePerimeter;html=1;labelPosition=right;labelBackgroundColor=#ffffff;align=left;" parent="7a84cebc1def654-16" vertex="1">
          <mxGeometry x="1" width="30" height="30" relative="1" as="geometry">
            <mxPoint x="-15" y="10" as="offset" />
          </mxGeometry>
        </mxCell>
        <mxCell id="7a84cebc1def654-18" value="Process" style="html=1;whiteSpace=wrap;rounded=1;" parent="1" vertex="1">
          <mxGeometry x="3900" y="850" width="120" height="80" as="geometry" />
        </mxCell>
        <mxCell id="7a84cebc1def654-19" value="" style="shape=mxgraph.bpmn.timer_start;perimeter=ellipsePerimeter;html=1;labelPosition=right;labelBackgroundColor=#ffffff;align=left;" parent="7a84cebc1def654-18" vertex="1">
          <mxGeometry x="1" width="30" height="30" relative="1" as="geometry">
            <mxPoint x="-15" y="10" as="offset" />
          </mxGeometry>
        </mxCell>
        <mxCell id="7a84cebc1def654-20" value="Receive" style="html=1;whiteSpace=wrap;rounded=1;" parent="1" vertex="1">
          <mxGeometry x="3730" y="850" width="120" height="80" as="geometry" />
        </mxCell>
        <mxCell id="7a84cebc1def654-21" value="" style="html=1;shape=message;" parent="7a84cebc1def654-20" vertex="1">
          <mxGeometry width="20" height="14" relative="1" as="geometry">
            <mxPoint x="7" y="7" as="offset" />
          </mxGeometry>
        </mxCell>
        <mxCell id="7a84cebc1def654-22" value="Sub-Process" style="html=1;whiteSpace=wrap;rounded=1;" parent="1" vertex="1">
          <mxGeometry x="3585" y="850" width="120" height="80" as="geometry" />
        </mxCell>
        <mxCell id="7a84cebc1def654-23" value="" style="html=1;shape=plus;" parent="7a84cebc1def654-22" vertex="1">
          <mxGeometry x="0.5" y="1" width="14" height="14" relative="1" as="geometry">
            <mxPoint x="-7" y="-14" as="offset" />
          </mxGeometry>
        </mxCell>
        <mxCell id="7a84cebc1def654-24" value="" style="shape=mxgraph.bpmn.shape;html=1;verticalLabelPosition=bottom;labelBackgroundColor=#ffffff;verticalAlign=top;perimeter=rhombusPerimeter;background=gateway;outline=none;symbol=parallelGw;" parent="1" vertex="1">
          <mxGeometry x="3935" y="565" width="50" height="50" as="geometry" />
        </mxCell>
        <mxCell id="7a84cebc1def654-26" value="" style="shape=mxgraph.bpmn.shape;html=1;verticalLabelPosition=bottom;labelBackgroundColor=#ffffff;verticalAlign=top;perimeter=ellipsePerimeter;outline=end;symbol=general;" parent="1" vertex="1">
          <mxGeometry x="4070" y="565" width="50" height="50" as="geometry" />
        </mxCell>
        <mxCell id="7a84cebc1def654-27" value="" style="shape=message;whiteSpace=wrap;html=1;" parent="1" vertex="1">
          <mxGeometry x="3500" y="250" width="40" height="30" as="geometry" />
        </mxCell>
        <mxCell id="7a84cebc1def654-28" value="" style="shape=message;whiteSpace=wrap;html=1;" parent="1" vertex="1">
          <mxGeometry x="3690" y="250" width="40" height="30" as="geometry" />
        </mxCell>
        <mxCell id="7a84cebc1def654-29" value="Sub-Process" style="html=1;whiteSpace=wrap;rounded=1;" parent="1" vertex="1">
          <mxGeometry x="3340" y="730" width="120" height="80" as="geometry" />
        </mxCell>
        <mxCell id="7a84cebc1def654-30" value="" style="html=1;shape=plus;" parent="7a84cebc1def654-29" vertex="1">
          <mxGeometry x="0.5" y="1" width="14" height="14" relative="1" as="geometry">
            <mxPoint x="-7" y="-14" as="offset" />
          </mxGeometry>
        </mxCell>
        <mxCell id="7a84cebc1def654-31" value="" style="shape=message;whiteSpace=wrap;html=1;" parent="1" vertex="1">
          <mxGeometry x="3380" y="850" width="40" height="30" as="geometry" />
        </mxCell>
        <mxCell id="7a84cebc1def654-32" value="" style="shape=message;whiteSpace=wrap;html=1;" parent="1" vertex="1">
          <mxGeometry x="3770" y="970" width="40" height="30" as="geometry" />
        </mxCell>
        <mxCell id="7a84cebc1def654-33" value="" style="shape=message;whiteSpace=wrap;html=1;" parent="1" vertex="1">
          <mxGeometry x="3940" y="970" width="40" height="30" as="geometry" />
        </mxCell>
        <mxCell id="7a84cebc1def654-34" value="" style="shape=message;whiteSpace=wrap;html=1;" parent="1" vertex="1">
          <mxGeometry x="3625" y="970" width="40" height="30" as="geometry" />
        </mxCell>
        <mxCell id="7a84cebc1def654-35" value="" style="shape=message;whiteSpace=wrap;html=1;" parent="1" vertex="1">
          <mxGeometry x="3625" y="670" width="40" height="30" as="geometry" />
        </mxCell>
        <mxCell id="7a84cebc1def654-36" style="edgeStyle=orthogonalEdgeStyle;rounded=0;html=1;jettySize=auto;orthogonalLoop=1;" parent="1" source="7a84cebc1def654-1" target="7a84cebc1def654-2" edge="1">
          <mxGeometry relative="1" as="geometry" />
        </mxCell>
        <mxCell id="7a84cebc1def654-37" style="edgeStyle=orthogonalEdgeStyle;rounded=0;html=1;jettySize=auto;orthogonalLoop=1;endArrow=none;endFill=0;" parent="1" source="7a84cebc1def654-4" target="7a84cebc1def654-2" edge="1">
          <mxGeometry relative="1" as="geometry" />
        </mxCell>
        <mxCell id="7a84cebc1def654-38" style="edgeStyle=orthogonalEdgeStyle;rounded=0;html=1;jettySize=auto;orthogonalLoop=1;endArrow=none;endFill=0;" parent="1" source="7a84cebc1def654-5" target="7a84cebc1def654-3" edge="1">
          <mxGeometry relative="1" as="geometry" />
        </mxCell>
        <mxCell id="7a84cebc1def654-39" style="edgeStyle=orthogonalEdgeStyle;rounded=0;html=1;jettySize=auto;orthogonalLoop=1;" parent="1" source="7a84cebc1def654-2" target="7a84cebc1def654-3" edge="1">
          <mxGeometry relative="1" as="geometry" />
        </mxCell>
        <mxCell id="7a84cebc1def654-40" style="edgeStyle=orthogonalEdgeStyle;rounded=0;html=1;jettySize=auto;orthogonalLoop=1;" parent="1" source="7a84cebc1def654-14" target="7a84cebc1def654-12" edge="1">
          <mxGeometry relative="1" as="geometry" />
        </mxCell>
        <mxCell id="7a84cebc1def654-41" style="edgeStyle=orthogonalEdgeStyle;rounded=0;html=1;jettySize=auto;orthogonalLoop=1;endArrow=none;endFill=0;" parent="1" source="7a84cebc1def654-27" target="7a84cebc1def654-14" edge="1">
          <mxGeometry relative="1" as="geometry" />
        </mxCell>
        <mxCell id="7a84cebc1def654-42" style="edgeStyle=orthogonalEdgeStyle;rounded=0;html=1;jettySize=auto;orthogonalLoop=1;endArrow=none;endFill=0;" parent="1" source="7a84cebc1def654-28" target="7a84cebc1def654-12" edge="1">
          <mxGeometry relative="1" as="geometry" />
        </mxCell>
        <mxCell id="7a84cebc1def654-43" style="edgeStyle=orthogonalEdgeStyle;rounded=0;html=1;jettySize=auto;orthogonalLoop=1;" parent="1" source="7a84cebc1def654-12" target="7a84cebc1def654-24" edge="1">
          <mxGeometry relative="1" as="geometry">
            <mxPoint x="3969.9999999999995" y="550" as="targetPoint" />
            <Array as="points">
              <mxPoint x="3960" y="365" />
            </Array>
          </mxGeometry>
        </mxCell>
        <mxCell id="7a84cebc1def654-44" style="edgeStyle=orthogonalEdgeStyle;rounded=0;html=1;jettySize=auto;orthogonalLoop=1;" parent="1" source="7a84cebc1def654-16" target="7a84cebc1def654-24" edge="1">
          <mxGeometry relative="1" as="geometry" />
        </mxCell>
        <mxCell id="7a84cebc1def654-45" style="edgeStyle=orthogonalEdgeStyle;rounded=0;html=1;jettySize=auto;orthogonalLoop=1;" parent="1" source="7a84cebc1def654-18" target="7a84cebc1def654-24" edge="1">
          <mxGeometry relative="1" as="geometry" />
        </mxCell>
        <mxCell id="7a84cebc1def654-46" style="edgeStyle=orthogonalEdgeStyle;rounded=0;html=1;jettySize=auto;orthogonalLoop=1;" parent="1" source="7a84cebc1def654-24" target="7a84cebc1def654-26" edge="1">
          <mxGeometry relative="1" as="geometry" />
        </mxCell>
        <mxCell id="7a84cebc1def654-47" style="edgeStyle=orthogonalEdgeStyle;rounded=0;html=1;jettySize=auto;orthogonalLoop=1;" parent="1" source="7a84cebc1def654-3" target="7a84cebc1def654-6" edge="1">
          <mxGeometry relative="1" as="geometry" />
        </mxCell>
        <mxCell id="7a84cebc1def654-48" style="edgeStyle=orthogonalEdgeStyle;rounded=0;html=1;jettySize=auto;orthogonalLoop=1;" parent="1" source="7a84cebc1def654-6" target="7a84cebc1def654-8" edge="1">
          <mxGeometry relative="1" as="geometry" />
        </mxCell>
        <mxCell id="7a84cebc1def654-49" style="edgeStyle=orthogonalEdgeStyle;rounded=0;html=1;jettySize=auto;orthogonalLoop=1;" parent="1" source="7a84cebc1def654-8" target="7a84cebc1def654-9" edge="1">
          <mxGeometry relative="1" as="geometry" />
        </mxCell>
        <mxCell id="7a84cebc1def654-50" style="edgeStyle=orthogonalEdgeStyle;rounded=0;html=1;jettySize=auto;orthogonalLoop=1;" parent="1" source="7a84cebc1def654-9" target="7a84cebc1def654-14" edge="1">
          <mxGeometry relative="1" as="geometry">
            <Array as="points">
              <mxPoint x="3400" y="365" />
            </Array>
          </mxGeometry>
        </mxCell>
        <mxCell id="7a84cebc1def654-51" style="edgeStyle=orthogonalEdgeStyle;rounded=0;html=1;jettySize=auto;orthogonalLoop=1;" parent="1" source="7a84cebc1def654-9" target="7a84cebc1def654-29" edge="1">
          <mxGeometry relative="1" as="geometry" />
        </mxCell>
        <mxCell id="7a84cebc1def654-52" style="edgeStyle=orthogonalEdgeStyle;rounded=0;html=1;jettySize=auto;orthogonalLoop=1;endArrow=none;endFill=0;" parent="1" source="7a84cebc1def654-31" target="7a84cebc1def654-29" edge="1">
          <mxGeometry relative="1" as="geometry" />
        </mxCell>
        <mxCell id="7a84cebc1def654-53" value="" style="shape=mxgraph.bpmn.shape;html=1;verticalLabelPosition=bottom;labelBackgroundColor=#ffffff;verticalAlign=top;perimeter=rhombusPerimeter;background=gateway;outline=none;symbol=parallelGw;" parent="1" vertex="1">
          <mxGeometry x="3510" y="745" width="50" height="50" as="geometry" />
        </mxCell>
        <mxCell id="7a84cebc1def654-54" style="edgeStyle=orthogonalEdgeStyle;rounded=0;html=1;jettySize=auto;orthogonalLoop=1;" parent="1" source="7a84cebc1def654-53" target="7a84cebc1def654-22" edge="1">
          <mxGeometry relative="1" as="geometry">
            <Array as="points">
              <mxPoint x="3535" y="890" />
            </Array>
          </mxGeometry>
        </mxCell>
        <mxCell id="7a84cebc1def654-55" style="edgeStyle=orthogonalEdgeStyle;rounded=0;html=1;jettySize=auto;orthogonalLoop=1;" parent="1" source="7a84cebc1def654-53" target="7a84cebc1def654-16" edge="1">
          <mxGeometry relative="1" as="geometry">
            <Array as="points">
              <mxPoint x="3535" y="590" />
            </Array>
          </mxGeometry>
        </mxCell>
        <mxCell id="7a84cebc1def654-56" style="edgeStyle=orthogonalEdgeStyle;rounded=0;html=1;jettySize=auto;orthogonalLoop=1;endArrow=none;endFill=0;" parent="1" source="7a84cebc1def654-35" target="7a84cebc1def654-16" edge="1">
          <mxGeometry relative="1" as="geometry" />
        </mxCell>
        <mxCell id="7a84cebc1def654-58" style="edgeStyle=orthogonalEdgeStyle;rounded=0;html=1;jettySize=auto;orthogonalLoop=1;" parent="1" source="7a84cebc1def654-29" target="7a84cebc1def654-53" edge="1">
          <mxGeometry relative="1" as="geometry" />
        </mxCell>
        <mxCell id="7a84cebc1def654-59" style="edgeStyle=orthogonalEdgeStyle;rounded=0;html=1;jettySize=auto;orthogonalLoop=1;" parent="1" source="7a84cebc1def654-22" target="7a84cebc1def654-20" edge="1">
          <mxGeometry relative="1" as="geometry" />
        </mxCell>
        <mxCell id="7a84cebc1def654-60" style="edgeStyle=orthogonalEdgeStyle;rounded=0;html=1;jettySize=auto;orthogonalLoop=1;endArrow=none;endFill=0;" parent="1" source="7a84cebc1def654-34" target="7a84cebc1def654-22" edge="1">
          <mxGeometry relative="1" as="geometry" />
        </mxCell>
        <mxCell id="7a84cebc1def654-61" style="edgeStyle=orthogonalEdgeStyle;rounded=0;html=1;jettySize=auto;orthogonalLoop=1;endArrow=none;endFill=0;" parent="1" source="7a84cebc1def654-32" target="7a84cebc1def654-20" edge="1">
          <mxGeometry relative="1" as="geometry" />
        </mxCell>
        <mxCell id="7a84cebc1def654-63" style="edgeStyle=orthogonalEdgeStyle;rounded=0;html=1;jettySize=auto;orthogonalLoop=1;endArrow=none;endFill=0;" parent="1" source="7a84cebc1def654-33" target="7a84cebc1def654-18" edge="1">
          <mxGeometry relative="1" as="geometry" />
        </mxCell>
        <mxCell id="7a84cebc1def654-64" style="edgeStyle=orthogonalEdgeStyle;rounded=0;html=1;jettySize=auto;orthogonalLoop=1;" parent="1" source="7a84cebc1def654-20" target="7a84cebc1def654-18" edge="1">
          <mxGeometry relative="1" as="geometry" />
        </mxCell>
        <mxCell id="mI56wUNec-iC075m9wem-6" style="edgeStyle=orthogonalEdgeStyle;rounded=0;orthogonalLoop=1;jettySize=auto;html=1;exitX=1;exitY=0;exitDx=0;exitDy=0;entryX=0;entryY=0.5;entryDx=0;entryDy=0;" edge="1" parent="1" source="mI56wUNec-iC075m9wem-1" target="mI56wUNec-iC075m9wem-2">
          <mxGeometry relative="1" as="geometry" />
        </mxCell>
        <mxCell id="mI56wUNec-iC075m9wem-7" style="edgeStyle=orthogonalEdgeStyle;rounded=0;orthogonalLoop=1;jettySize=auto;html=1;entryX=0;entryY=0.5;entryDx=0;entryDy=0;" edge="1" parent="1" source="mI56wUNec-iC075m9wem-1" target="mI56wUNec-iC075m9wem-3">
          <mxGeometry relative="1" as="geometry" />
        </mxCell>
        <mxCell id="mI56wUNec-iC075m9wem-8" style="edgeStyle=orthogonalEdgeStyle;rounded=0;orthogonalLoop=1;jettySize=auto;html=1;entryX=0;entryY=0.5;entryDx=0;entryDy=0;" edge="1" parent="1" source="mI56wUNec-iC075m9wem-1" target="mI56wUNec-iC075m9wem-4">
          <mxGeometry relative="1" as="geometry" />
        </mxCell>
        <mxCell id="mI56wUNec-iC075m9wem-9" style="edgeStyle=orthogonalEdgeStyle;rounded=0;orthogonalLoop=1;jettySize=auto;html=1;exitX=1;exitY=1;exitDx=0;exitDy=0;entryX=0;entryY=0.5;entryDx=0;entryDy=0;" edge="1" parent="1" source="mI56wUNec-iC075m9wem-1" target="mI56wUNec-iC075m9wem-5">
          <mxGeometry relative="1" as="geometry" />
        </mxCell>
        <mxCell id="mI56wUNec-iC075m9wem-1" value="选择动画" style="rounded=0;whiteSpace=wrap;html=1;" vertex="1" parent="1">
          <mxGeometry x="90" y="260" width="110" height="60" as="geometry" />
        </mxCell>
        <mxCell id="mI56wUNec-iC075m9wem-14" style="edgeStyle=orthogonalEdgeStyle;rounded=0;orthogonalLoop=1;jettySize=auto;html=1;entryX=0;entryY=0.5;entryDx=0;entryDy=0;" edge="1" parent="1" source="mI56wUNec-iC075m9wem-2" target="mI56wUNec-iC075m9wem-10">
          <mxGeometry relative="1" as="geometry" />
        </mxCell>
        <mxCell id="mI56wUNec-iC075m9wem-2" value="入场1" style="rounded=0;whiteSpace=wrap;html=1;" vertex="1" parent="1">
          <mxGeometry x="320" y="140" width="120" height="60" as="geometry" />
        </mxCell>
        <mxCell id="mI56wUNec-iC075m9wem-15" style="edgeStyle=orthogonalEdgeStyle;rounded=0;orthogonalLoop=1;jettySize=auto;html=1;" edge="1" parent="1" source="mI56wUNec-iC075m9wem-3" target="mI56wUNec-iC075m9wem-11">
          <mxGeometry relative="1" as="geometry" />
        </mxCell>
        <mxCell id="mI56wUNec-iC075m9wem-3" value="出场1" style="rounded=0;whiteSpace=wrap;html=1;" vertex="1" parent="1">
          <mxGeometry x="320" y="220" width="120" height="60" as="geometry" />
        </mxCell>
        <mxCell id="mI56wUNec-iC075m9wem-16" style="edgeStyle=orthogonalEdgeStyle;rounded=0;orthogonalLoop=1;jettySize=auto;html=1;entryX=0;entryY=0.5;entryDx=0;entryDy=0;" edge="1" parent="1" source="mI56wUNec-iC075m9wem-4" target="mI56wUNec-iC075m9wem-12">
          <mxGeometry relative="1" as="geometry" />
        </mxCell>
        <mxCell id="mI56wUNec-iC075m9wem-4" value="强调1" style="rounded=0;whiteSpace=wrap;html=1;" vertex="1" parent="1">
          <mxGeometry x="320" y="300" width="120" height="60" as="geometry" />
        </mxCell>
        <mxCell id="mI56wUNec-iC075m9wem-17" style="edgeStyle=orthogonalEdgeStyle;rounded=0;orthogonalLoop=1;jettySize=auto;html=1;entryX=0;entryY=0.5;entryDx=0;entryDy=0;" edge="1" parent="1" source="mI56wUNec-iC075m9wem-5" target="mI56wUNec-iC075m9wem-13">
          <mxGeometry relative="1" as="geometry" />
        </mxCell>
        <mxCell id="mI56wUNec-iC075m9wem-5" value="路径1" style="rounded=0;whiteSpace=wrap;html=1;" vertex="1" parent="1">
          <mxGeometry x="320" y="400" width="120" height="60" as="geometry" />
        </mxCell>
        <mxCell id="mI56wUNec-iC075m9wem-36" style="edgeStyle=orthogonalEdgeStyle;shape=flexArrow;rounded=0;orthogonalLoop=1;jettySize=auto;html=1;entryX=0;entryY=0.5;entryDx=0;entryDy=0;" edge="1" parent="1" source="mI56wUNec-iC075m9wem-10" target="mI56wUNec-iC075m9wem-24">
          <mxGeometry relative="1" as="geometry" />
        </mxCell>
        <mxCell id="mI56wUNec-iC075m9wem-10" value="入场2" style="rounded=0;whiteSpace=wrap;html=1;" vertex="1" parent="1">
          <mxGeometry x="510" y="140" width="120" height="60" as="geometry" />
        </mxCell>
        <mxCell id="mI56wUNec-iC075m9wem-11" value="出场2" style="rounded=0;whiteSpace=wrap;html=1;" vertex="1" parent="1">
          <mxGeometry x="510" y="220" width="120" height="60" as="geometry" />
        </mxCell>
        <mxCell id="mI56wUNec-iC075m9wem-12" value="强调2" style="rounded=0;whiteSpace=wrap;html=1;" vertex="1" parent="1">
          <mxGeometry x="510" y="300" width="120" height="60" as="geometry" />
        </mxCell>
        <mxCell id="mI56wUNec-iC075m9wem-34" style="edgeStyle=orthogonalEdgeStyle;shape=flexArrow;rounded=0;orthogonalLoop=1;jettySize=auto;html=1;entryX=0;entryY=0.5;entryDx=0;entryDy=0;" edge="1" parent="1" source="mI56wUNec-iC075m9wem-13" target="mI56wUNec-iC075m9wem-21">
          <mxGeometry relative="1" as="geometry" />
        </mxCell>
        <mxCell id="mI56wUNec-iC075m9wem-13" value="路径2" style="rounded=0;whiteSpace=wrap;html=1;" vertex="1" parent="1">
          <mxGeometry x="510" y="400" width="120" height="60" as="geometry" />
        </mxCell>
        <mxCell id="mI56wUNec-iC075m9wem-28" style="edgeStyle=orthogonalEdgeStyle;rounded=0;orthogonalLoop=1;jettySize=auto;html=1;entryX=0;entryY=0.5;entryDx=0;entryDy=0;shape=flexArrow;" edge="1" parent="1" source="mI56wUNec-iC075m9wem-11" target="mI56wUNec-iC075m9wem-29">
          <mxGeometry relative="1" as="geometry">
            <mxPoint x="780" y="250" as="targetPoint" />
          </mxGeometry>
        </mxCell>
        <mxCell id="mI56wUNec-iC075m9wem-22" value="忽略 出场2" style="text;html=1;align=center;verticalAlign=middle;resizable=0;points=[];autosize=1;" vertex="1" parent="1">
          <mxGeometry x="915" y="240" width="70" height="20" as="geometry" />
        </mxCell>
        <mxCell id="mI56wUNec-iC075m9wem-32" style="edgeStyle=orthogonalEdgeStyle;rounded=0;orthogonalLoop=1;jettySize=auto;html=1;shape=flexArrow;entryX=0;entryY=0.5;entryDx=0;entryDy=0;" edge="1" parent="1" source="mI56wUNec-iC075m9wem-12" target="mI56wUNec-iC075m9wem-31">
          <mxGeometry relative="1" as="geometry">
            <mxPoint x="740" y="330" as="targetPoint" />
            <Array as="points">
              <mxPoint x="660" y="330" />
              <mxPoint x="660" y="330" />
            </Array>
          </mxGeometry>
        </mxCell>
        <mxCell id="mI56wUNec-iC075m9wem-39" value="" style="edgeStyle=orthogonalEdgeStyle;rounded=0;orthogonalLoop=1;jettySize=auto;html=1;entryX=1;entryY=0.5;entryDx=0;entryDy=0;dashed=1;dashPattern=1 1;endArrow=openThin;endFill=0;" edge="1" parent="1" source="mI56wUNec-iC075m9wem-23" target="mI56wUNec-iC075m9wem-31">
          <mxGeometry relative="1" as="geometry" />
        </mxCell>
        <mxCell id="mI56wUNec-iC075m9wem-23" value="嵌套" style="text;html=1;align=center;verticalAlign=middle;resizable=0;points=[];autosize=1;dashed=1;" vertex="1" parent="1">
          <mxGeometry x="945" y="320" width="40" height="20" as="geometry" />
        </mxCell>
        <mxCell id="mI56wUNec-iC075m9wem-37" style="edgeStyle=orthogonalEdgeStyle;rounded=0;orthogonalLoop=1;jettySize=auto;html=1;" edge="1" parent="1" source="mI56wUNec-iC075m9wem-24" target="mI56wUNec-iC075m9wem-35">
          <mxGeometry relative="1" as="geometry" />
        </mxCell>
        <mxCell id="mI56wUNec-iC075m9wem-24" value="入场1" style="rounded=0;whiteSpace=wrap;html=1;" vertex="1" parent="1">
          <mxGeometry x="770" y="145" width="120" height="50" as="geometry" />
        </mxCell>
        <mxCell id="mI56wUNec-iC075m9wem-29" value="出场1" style="rounded=0;whiteSpace=wrap;html=1;" vertex="1" parent="1">
          <mxGeometry x="765" y="220" width="120" height="60" as="geometry" />
        </mxCell>
        <mxCell id="mI56wUNec-iC075m9wem-35" value="入场2" style="rounded=0;whiteSpace=wrap;html=1;" vertex="1" parent="1">
          <mxGeometry x="930" y="145" width="120" height="50" as="geometry" />
        </mxCell>
        <mxCell id="mI56wUNec-iC075m9wem-38" value="" style="endArrow=none;dashed=1;html=1;dashPattern=1 3;strokeWidth=2;" edge="1" parent="1">
          <mxGeometry width="50" height="50" relative="1" as="geometry">
            <mxPoint x="720" y="1650" as="sourcePoint" />
            <mxPoint x="720" y="50" as="targetPoint" />
          </mxGeometry>
        </mxCell>
        <mxCell id="mI56wUNec-iC075m9wem-40" value="" style="edgeStyle=orthogonalEdgeStyle;rounded=0;orthogonalLoop=1;jettySize=auto;html=1;entryX=1;entryY=0.5;entryDx=0;entryDy=0;dashed=1;dashPattern=1 1;endArrow=openThin;endFill=0;" edge="1" source="mI56wUNec-iC075m9wem-41" parent="1">
          <mxGeometry relative="1" as="geometry">
            <mxPoint x="900" y="430" as="targetPoint" />
          </mxGeometry>
        </mxCell>
        <mxCell id="mI56wUNec-iC075m9wem-41" value="嵌套" style="text;html=1;align=center;verticalAlign=middle;resizable=0;points=[];autosize=1;dashed=1;" vertex="1" parent="1">
          <mxGeometry x="932.5" y="420" width="40" height="20" as="geometry" />
        </mxCell>
        <mxCell id="mI56wUNec-iC075m9wem-43" style="edgeStyle=orthogonalEdgeStyle;rounded=0;orthogonalLoop=1;jettySize=auto;html=1;dashed=1;dashPattern=1 1;endArrow=openThin;endFill=0;entryX=0;entryY=0.5;entryDx=0;entryDy=0;" edge="1" parent="1" source="mI56wUNec-iC075m9wem-42" target="mI56wUNec-iC075m9wem-45">
          <mxGeometry relative="1" as="geometry">
            <mxPoint x="320" y="585" as="targetPoint" />
          </mxGeometry>
        </mxCell>
        <mxCell id="mI56wUNec-iC075m9wem-47" style="edgeStyle=orthogonalEdgeStyle;rounded=0;orthogonalLoop=1;jettySize=auto;html=1;entryX=0;entryY=0.5;entryDx=0;entryDy=0;dashed=1;dashPattern=1 1;endArrow=openThin;endFill=0;" edge="1" parent="1" source="mI56wUNec-iC075m9wem-42" target="mI56wUNec-iC075m9wem-44">
          <mxGeometry relative="1" as="geometry" />
        </mxCell>
        <mxCell id="mI56wUNec-iC075m9wem-48" style="edgeStyle=orthogonalEdgeStyle;rounded=0;orthogonalLoop=1;jettySize=auto;html=1;entryX=0;entryY=0.5;entryDx=0;entryDy=0;dashed=1;dashPattern=1 1;endArrow=openThin;endFill=0;" edge="1" parent="1" source="mI56wUNec-iC075m9wem-42" target="mI56wUNec-iC075m9wem-46">
          <mxGeometry relative="1" as="geometry" />
        </mxCell>
        <mxCell id="mI56wUNec-iC075m9wem-42" value="入场1" style="rounded=0;whiteSpace=wrap;html=1;" vertex="1" parent="1">
          <mxGeometry x="80" y="625" width="120" height="50" as="geometry" />
        </mxCell>
        <mxCell id="mI56wUNec-iC075m9wem-54" style="edgeStyle=orthogonalEdgeStyle;rounded=0;orthogonalLoop=1;jettySize=auto;html=1;dashed=1;dashPattern=1 1;endArrow=openThin;endFill=0;entryX=0;entryY=0.5;entryDx=0;entryDy=0;shape=flexArrow;" edge="1" parent="1" source="mI56wUNec-iC075m9wem-44" target="mI56wUNec-iC075m9wem-52">
          <mxGeometry relative="1" as="geometry">
            <mxPoint x="770" y="565" as="targetPoint" />
          </mxGeometry>
        </mxCell>
        <mxCell id="mI56wUNec-iC075m9wem-44" value="出场1" style="rounded=0;whiteSpace=wrap;html=1;" vertex="1" parent="1">
          <mxGeometry x="330" y="520" width="120" height="60" as="geometry" />
        </mxCell>
        <mxCell id="mI56wUNec-iC075m9wem-58" style="edgeStyle=orthogonalEdgeStyle;shape=flexArrow;rounded=0;orthogonalLoop=1;jettySize=auto;html=1;dashed=1;dashPattern=1 1;endArrow=openThin;endFill=0;" edge="1" parent="1" source="mI56wUNec-iC075m9wem-45" target="mI56wUNec-iC075m9wem-56">
          <mxGeometry relative="1" as="geometry" />
        </mxCell>
        <mxCell id="mI56wUNec-iC075m9wem-45" value="强调1" style="rounded=0;whiteSpace=wrap;html=1;" vertex="1" parent="1">
          <mxGeometry x="330" y="620" width="120" height="60" as="geometry" />
        </mxCell>
        <mxCell id="mI56wUNec-iC075m9wem-62" style="edgeStyle=orthogonalEdgeStyle;shape=flexArrow;rounded=0;orthogonalLoop=1;jettySize=auto;html=1;dashed=1;dashPattern=1 1;endArrow=openThin;endFill=0;" edge="1" parent="1" source="mI56wUNec-iC075m9wem-46" target="mI56wUNec-iC075m9wem-60">
          <mxGeometry relative="1" as="geometry" />
        </mxCell>
        <mxCell id="mI56wUNec-iC075m9wem-46" value="路径1" style="rounded=0;whiteSpace=wrap;html=1;" vertex="1" parent="1">
          <mxGeometry x="330" y="730" width="120" height="60" as="geometry" />
        </mxCell>
        <mxCell id="mI56wUNec-iC075m9wem-49" value="" style="group" vertex="1" connectable="0" parent="1">
          <mxGeometry x="765" y="395" width="135" height="70" as="geometry" />
        </mxCell>
        <mxCell id="mI56wUNec-iC075m9wem-21" value="路径2" style="rounded=0;whiteSpace=wrap;html=1;" vertex="1" parent="mI56wUNec-iC075m9wem-49">
          <mxGeometry width="135" height="70" as="geometry" />
        </mxCell>
        <mxCell id="mI56wUNec-iC075m9wem-33" value="路径1" style="rounded=0;whiteSpace=wrap;html=1;" vertex="1" parent="mI56wUNec-iC075m9wem-49">
          <mxGeometry x="15" y="45" width="100" height="20" as="geometry" />
        </mxCell>
        <mxCell id="mI56wUNec-iC075m9wem-50" value="" style="group" vertex="1" connectable="0" parent="1">
          <mxGeometry x="752.5" y="290" width="160" height="80" as="geometry" />
        </mxCell>
        <mxCell id="mI56wUNec-iC075m9wem-31" value="强调2&lt;br&gt;&lt;br&gt;&lt;br&gt;" style="rounded=0;whiteSpace=wrap;html=1;fillColor=#dae8fc;strokeColor=#6c8ebf;" vertex="1" parent="mI56wUNec-iC075m9wem-50">
          <mxGeometry width="160" height="80" as="geometry" />
        </mxCell>
        <mxCell id="mI56wUNec-iC075m9wem-20" value="强调1" style="rounded=0;whiteSpace=wrap;html=1;" vertex="1" parent="mI56wUNec-iC075m9wem-50">
          <mxGeometry x="32.5" y="40" width="95" height="35" as="geometry" />
        </mxCell>
        <mxCell id="mI56wUNec-iC075m9wem-51" value="" style="group" vertex="1" connectable="0" parent="1">
          <mxGeometry x="765" y="510" width="160" height="80" as="geometry" />
        </mxCell>
        <mxCell id="mI56wUNec-iC075m9wem-52" value="出场1&lt;br&gt;&lt;br&gt;&lt;br&gt;" style="rounded=0;whiteSpace=wrap;html=1;fillColor=#dae8fc;strokeColor=#6c8ebf;" vertex="1" parent="mI56wUNec-iC075m9wem-51">
          <mxGeometry width="160" height="80" as="geometry" />
        </mxCell>
        <mxCell id="mI56wUNec-iC075m9wem-53" value="入场1" style="rounded=0;whiteSpace=wrap;html=1;" vertex="1" parent="mI56wUNec-iC075m9wem-51">
          <mxGeometry x="32.5" y="40" width="95" height="35" as="geometry" />
        </mxCell>
        <mxCell id="mI56wUNec-iC075m9wem-55" value="" style="group" vertex="1" connectable="0" parent="1">
          <mxGeometry x="765" y="610" width="160" height="80" as="geometry" />
        </mxCell>
        <mxCell id="mI56wUNec-iC075m9wem-56" value="强调1&lt;br&gt;&lt;br&gt;&lt;br&gt;" style="rounded=0;whiteSpace=wrap;html=1;fillColor=#dae8fc;strokeColor=#6c8ebf;" vertex="1" parent="mI56wUNec-iC075m9wem-55">
          <mxGeometry width="160" height="80" as="geometry" />
        </mxCell>
        <mxCell id="mI56wUNec-iC075m9wem-57" value="入场1" style="rounded=0;whiteSpace=wrap;html=1;" vertex="1" parent="mI56wUNec-iC075m9wem-55">
          <mxGeometry x="32.5" y="40" width="95" height="35" as="geometry" />
        </mxCell>
        <mxCell id="mI56wUNec-iC075m9wem-59" value="" style="group" vertex="1" connectable="0" parent="1">
          <mxGeometry x="765" y="720" width="160" height="80" as="geometry" />
        </mxCell>
        <mxCell id="mI56wUNec-iC075m9wem-60" value="路径1&lt;br&gt;&lt;br&gt;&lt;br&gt;" style="rounded=0;whiteSpace=wrap;html=1;fillColor=#dae8fc;strokeColor=#6c8ebf;" vertex="1" parent="mI56wUNec-iC075m9wem-59">
          <mxGeometry width="160" height="80" as="geometry" />
        </mxCell>
        <mxCell id="mI56wUNec-iC075m9wem-61" value="入场1" style="rounded=0;whiteSpace=wrap;html=1;" vertex="1" parent="mI56wUNec-iC075m9wem-59">
          <mxGeometry x="32.5" y="40" width="95" height="35" as="geometry" />
        </mxCell>
        <mxCell id="mI56wUNec-iC075m9wem-69" style="edgeStyle=orthogonalEdgeStyle;rounded=0;orthogonalLoop=1;jettySize=auto;html=1;exitX=1;exitY=0;exitDx=0;exitDy=0;entryX=0;entryY=0.5;entryDx=0;entryDy=0;dashed=1;dashPattern=1 1;endArrow=openThin;endFill=0;" edge="1" parent="1" source="mI56wUNec-iC075m9wem-63" target="mI56wUNec-iC075m9wem-65">
          <mxGeometry relative="1" as="geometry" />
        </mxCell>
        <mxCell id="mI56wUNec-iC075m9wem-71" style="edgeStyle=orthogonalEdgeStyle;rounded=0;orthogonalLoop=1;jettySize=auto;html=1;entryX=0;entryY=0.5;entryDx=0;entryDy=0;dashed=1;dashPattern=1 1;endArrow=openThin;endFill=0;" edge="1" parent="1" source="mI56wUNec-iC075m9wem-63" target="mI56wUNec-iC075m9wem-67">
          <mxGeometry relative="1" as="geometry" />
        </mxCell>
        <mxCell id="mI56wUNec-iC075m9wem-72" style="edgeStyle=orthogonalEdgeStyle;rounded=0;orthogonalLoop=1;jettySize=auto;html=1;exitX=1;exitY=0.5;exitDx=0;exitDy=0;entryX=0;entryY=0.5;entryDx=0;entryDy=0;dashed=1;dashPattern=1 1;endArrow=openThin;endFill=0;" edge="1" parent="1" source="mI56wUNec-iC075m9wem-63" target="mI56wUNec-iC075m9wem-68">
          <mxGeometry relative="1" as="geometry" />
        </mxCell>
        <mxCell id="mI56wUNec-iC075m9wem-83" style="edgeStyle=orthogonalEdgeStyle;rounded=0;orthogonalLoop=1;jettySize=auto;html=1;exitX=1;exitY=1;exitDx=0;exitDy=0;entryX=0;entryY=0.5;entryDx=0;entryDy=0;endArrow=classicThin;endFill=1;" edge="1" parent="1" source="mI56wUNec-iC075m9wem-63" target="mI56wUNec-iC075m9wem-82">
          <mxGeometry relative="1" as="geometry" />
        </mxCell>
        <mxCell id="mI56wUNec-iC075m9wem-63" value="出场1" style="rounded=0;whiteSpace=wrap;html=1;" vertex="1" parent="1">
          <mxGeometry x="90" y="1040" width="120" height="60" as="geometry" />
        </mxCell>
        <mxCell id="mI56wUNec-iC075m9wem-76" style="edgeStyle=orthogonalEdgeStyle;rounded=0;orthogonalLoop=1;jettySize=auto;html=1;endArrow=classicThin;endFill=1;shape=flexArrow;" edge="1" parent="1" source="mI56wUNec-iC075m9wem-65" target="mI56wUNec-iC075m9wem-73">
          <mxGeometry relative="1" as="geometry" />
        </mxCell>
        <mxCell id="mI56wUNec-iC075m9wem-65" value="入场1" style="rounded=0;whiteSpace=wrap;html=1;" vertex="1" parent="1">
          <mxGeometry x="330" y="925" width="120" height="50" as="geometry" />
        </mxCell>
        <mxCell id="mI56wUNec-iC075m9wem-78" style="edgeStyle=orthogonalEdgeStyle;shape=flexArrow;rounded=0;orthogonalLoop=1;jettySize=auto;html=1;entryX=0;entryY=0.5;entryDx=0;entryDy=0;endArrow=classicThin;endFill=1;" edge="1" parent="1" source="mI56wUNec-iC075m9wem-67" target="mI56wUNec-iC075m9wem-77">
          <mxGeometry relative="1" as="geometry" />
        </mxCell>
        <mxCell id="mI56wUNec-iC075m9wem-67" value="强调1" style="rounded=0;whiteSpace=wrap;html=1;" vertex="1" parent="1">
          <mxGeometry x="330" y="1000" width="120" height="50" as="geometry" />
        </mxCell>
        <mxCell id="mI56wUNec-iC075m9wem-79" style="edgeStyle=orthogonalEdgeStyle;shape=flexArrow;rounded=0;orthogonalLoop=1;jettySize=auto;html=1;endArrow=classicThin;endFill=1;entryX=0;entryY=0.5;entryDx=0;entryDy=0;" edge="1" parent="1" source="mI56wUNec-iC075m9wem-68" target="mI56wUNec-iC075m9wem-77">
          <mxGeometry relative="1" as="geometry">
            <mxPoint x="580" y="1080" as="targetPoint" />
          </mxGeometry>
        </mxCell>
        <mxCell id="mI56wUNec-iC075m9wem-68" value="路径1" style="rounded=0;whiteSpace=wrap;html=1;" vertex="1" parent="1">
          <mxGeometry x="330" y="1090" width="120" height="50" as="geometry" />
        </mxCell>
        <mxCell id="mI56wUNec-iC075m9wem-75" style="edgeStyle=orthogonalEdgeStyle;rounded=0;orthogonalLoop=1;jettySize=auto;html=1;exitX=1;exitY=0.5;exitDx=0;exitDy=0;endArrow=classicThin;endFill=1;" edge="1" parent="1" source="mI56wUNec-iC075m9wem-73" target="mI56wUNec-iC075m9wem-74">
          <mxGeometry relative="1" as="geometry" />
        </mxCell>
        <mxCell id="mI56wUNec-iC075m9wem-73" value="出场1" style="rounded=0;whiteSpace=wrap;html=1;" vertex="1" parent="1">
          <mxGeometry x="765" y="920" width="120" height="60" as="geometry" />
        </mxCell>
        <mxCell id="mI56wUNec-iC075m9wem-74" value="入场1" style="rounded=0;whiteSpace=wrap;html=1;" vertex="1" parent="1">
          <mxGeometry x="945" y="920" width="120" height="60" as="geometry" />
        </mxCell>
        <mxCell id="mI56wUNec-iC075m9wem-80" style="edgeStyle=orthogonalEdgeStyle;rounded=0;orthogonalLoop=1;jettySize=auto;html=1;endArrow=classicThin;endFill=1;dashed=1;dashPattern=1 4;" edge="1" parent="1" source="mI56wUNec-iC075m9wem-77">
          <mxGeometry relative="1" as="geometry">
            <mxPoint x="960" y="1115" as="targetPoint" />
          </mxGeometry>
        </mxCell>
        <mxCell id="mI56wUNec-iC075m9wem-77" value="出场1" style="rounded=0;whiteSpace=wrap;html=1;" vertex="1" parent="1">
          <mxGeometry x="772.5" y="1085" width="120" height="60" as="geometry" />
        </mxCell>
        <mxCell id="mI56wUNec-iC075m9wem-81" value="出场后的非入场动画&lt;br&gt;&lt;b&gt;&lt;font color=&quot;#ff0000&quot;&gt;忽略&lt;/font&gt;&lt;/b&gt;" style="text;html=1;align=center;verticalAlign=middle;resizable=0;points=[];autosize=1;" vertex="1" parent="1">
          <mxGeometry x="930" y="1100" width="120" height="30" as="geometry" />
        </mxCell>
        <mxCell id="mI56wUNec-iC075m9wem-84" style="edgeStyle=orthogonalEdgeStyle;rounded=0;orthogonalLoop=1;jettySize=auto;html=1;entryX=0;entryY=0.5;entryDx=0;entryDy=0;endArrow=classicThin;endFill=1;shape=flexArrow;" edge="1" parent="1" source="mI56wUNec-iC075m9wem-82" target="mI56wUNec-iC075m9wem-77">
          <mxGeometry relative="1" as="geometry" />
        </mxCell>
        <mxCell id="mI56wUNec-iC075m9wem-82" value="出场2" style="rounded=0;whiteSpace=wrap;html=1;" vertex="1" parent="1">
          <mxGeometry x="330" y="1170" width="120" height="50" as="geometry" />
        </mxCell>
        <mxCell id="mI56wUNec-iC075m9wem-94" style="edgeStyle=orthogonalEdgeStyle;rounded=0;orthogonalLoop=1;jettySize=auto;html=1;entryX=0;entryY=0.5;entryDx=0;entryDy=0;endArrow=classicThin;endFill=1;" edge="1" parent="1" source="mI56wUNec-iC075m9wem-88" target="mI56wUNec-iC075m9wem-90">
          <mxGeometry relative="1" as="geometry" />
        </mxCell>
        <mxCell id="mI56wUNec-iC075m9wem-88" value="强调1" style="rounded=0;whiteSpace=wrap;html=1;" vertex="1" parent="1">
          <mxGeometry x="85" y="1360" width="120" height="60" as="geometry" />
        </mxCell>
        <mxCell id="mI56wUNec-iC075m9wem-89" value="路径1" style="rounded=0;whiteSpace=wrap;html=1;" vertex="1" parent="1">
          <mxGeometry x="85" y="1450" width="120" height="60" as="geometry" />
        </mxCell>
        <mxCell id="mI56wUNec-iC075m9wem-100" style="edgeStyle=orthogonalEdgeStyle;rounded=0;orthogonalLoop=1;jettySize=auto;html=1;endArrow=classicThin;endFill=1;shape=flexArrow;endSize=6;" edge="1" parent="1" source="mI56wUNec-iC075m9wem-90">
          <mxGeometry relative="1" as="geometry">
            <mxPoint x="770" y="1315" as="targetPoint" />
          </mxGeometry>
        </mxCell>
        <mxCell id="mI56wUNec-iC075m9wem-90" value="入场1" style="rounded=0;whiteSpace=wrap;html=1;" vertex="1" parent="1">
          <mxGeometry x="330" y="1290" width="120" height="50" as="geometry" />
        </mxCell>
        <mxCell id="mI56wUNec-iC075m9wem-91" value="强调1" style="rounded=0;whiteSpace=wrap;html=1;" vertex="1" parent="1">
          <mxGeometry x="330" y="1365" width="120" height="50" as="geometry" />
        </mxCell>
        <mxCell id="mI56wUNec-iC075m9wem-92" value="路径1" style="rounded=0;whiteSpace=wrap;html=1;" vertex="1" parent="1">
          <mxGeometry x="330" y="1455" width="120" height="50" as="geometry" />
        </mxCell>
        <mxCell id="mI56wUNec-iC075m9wem-93" value="出场2" style="rounded=0;whiteSpace=wrap;html=1;" vertex="1" parent="1">
          <mxGeometry x="330" y="1535" width="120" height="50" as="geometry" />
        </mxCell>
        <mxCell id="mI56wUNec-iC075m9wem-99" style="edgeStyle=orthogonalEdgeStyle;rounded=0;orthogonalLoop=1;jettySize=auto;html=1;endArrow=classicThin;endFill=1;" edge="1" parent="1" source="mI56wUNec-iC075m9wem-95" target="mI56wUNec-iC075m9wem-96">
          <mxGeometry relative="1" as="geometry" />
        </mxCell>
        <mxCell id="mI56wUNec-iC075m9wem-95" value="强调1" style="rounded=0;whiteSpace=wrap;html=1;" vertex="1" parent="1">
          <mxGeometry x="772.5" y="1290" width="120" height="50" as="geometry" />
        </mxCell>
        <mxCell id="mI56wUNec-iC075m9wem-96" value="入场1" style="rounded=0;whiteSpace=wrap;html=1;" vertex="1" parent="1">
          <mxGeometry x="950" y="1290" width="120" height="50" as="geometry" />
        </mxCell>
      </root>
    </mxGraphModel>
  </diagram>
</mxfile>
